<svg width="558" height="200" viewBox="0 0 558 200" fill="none" xmlns="http://www.w3.org/2000/svg">
<path d="M95.0739 136.335C95.1817 125.32 92.3893 116.364 88.8373 116.329C85.285 116.294 82.3182 125.195 82.2106 136.209C82.1029 147.223 84.8953 156.18 88.4473 156.215C91.9995 156.25 94.9664 147.349 95.0739 136.335Z" fill="#6B00EE"/>
<path d="M74.4728 133.833C80.5186 124.626 83.0125 115.581 80.0432 113.632C77.0737 111.682 69.7654 117.565 63.7198 126.772C57.674 135.98 55.1802 145.024 58.1494 146.974C61.119 148.924 68.427 143.041 74.4728 133.833Z" fill="#6B00EE"/>
<path d="M58.4701 120.623C68.5342 116.147 75.5223 109.887 74.0785 106.641C72.6349 103.395 63.3061 104.393 53.2419 108.87C43.1779 113.346 36.1897 119.606 37.6334 122.852C39.0771 126.098 48.406 125.1 58.4701 120.623Z" fill="#6B00EE"/>
<path d="M72.8706 97.5388C73.411 94.0278 65.0238 89.8233 54.1374 88.1476C43.2507 86.4719 33.9873 87.9599 33.4469 91.4709C32.9065 94.9818 41.2938 99.1862 52.1803 100.862C63.0668 102.538 72.3303 101.05 72.8706 97.5388Z" fill="#6B00EE"/>
<path d="M76.7792 89.1748C79.1317 86.5132 74.348 78.4422 66.0946 71.1479C57.8413 63.8536 49.2436 60.0982 46.8911 62.76C44.5387 65.4218 49.3224 73.4927 57.5758 80.787C65.8292 88.0814 74.427 91.8366 76.7792 89.1748Z" fill="#6B00EE"/>
<path d="M84.5634 84.2867C87.9814 83.3195 88.321 73.9434 85.322 63.3449C82.323 52.7463 77.1207 44.9385 73.7026 45.9057C70.2846 46.873 69.945 56.2489 72.944 66.8476C75.943 77.446 81.1453 85.2539 84.5634 84.2867Z" fill="#6B00EE"/>
<path d="M105.7 67.1774C108.908 56.6399 108.753 47.2591 105.355 46.2247C101.956 45.1902 96.6013 52.8939 93.3937 63.4313C90.1863 73.9686 90.3409 83.3495 93.7393 84.3839C97.1377 85.4183 102.493 77.7148 105.7 67.1774Z" fill="#6B00EE"/>
<path d="M120.803 81.4156C129.198 74.284 134.138 66.3081 131.838 63.6009C129.538 60.8937 120.869 64.4805 112.475 71.6118C104.08 78.7434 99.1398 86.7194 101.44 89.4266C103.74 92.1338 112.409 88.5472 120.803 81.4156Z" fill="#6B00EE"/>
<path d="M125.797 101.565C136.715 100.104 145.183 96.0657 144.712 92.5446C144.241 89.0238 135.009 87.3537 124.091 88.8141C113.174 90.2747 104.705 94.313 105.176 97.834C105.648 101.355 114.88 103.025 125.797 101.565Z" fill="#6B00EE"/>
<path d="M139.881 123.858C141.388 120.642 134.525 114.245 124.551 109.571C114.578 104.897 105.27 103.715 103.763 106.932C102.255 110.148 109.118 116.545 119.092 121.219C129.066 125.893 138.374 127.075 139.881 123.858Z" fill="#6B00EE"/>
<path d="M118.901 147.592C121.909 145.701 119.594 136.609 113.731 127.284C107.868 117.959 100.677 111.933 97.6695 113.824C94.6623 115.715 96.9774 124.807 102.84 134.132C108.703 143.456 115.894 149.483 118.901 147.592Z" fill="#6B00EE"/>
<path d="M193.87 133H181.36V83.68H163.36V73.24H211.96V83.68H193.87V133ZM222.216 133H210.516V88.72H221.496V94.03C225.366 88.09 229.866 87.55 234.636 87.55H236.166V99.52C235.086 99.34 234.006 99.25 232.926 99.25C225.726 99.25 222.216 102.85 222.216 109.96V133ZM251.402 133H239.702V88.72H251.402V133ZM251.402 83.41H239.702V72.52H251.402V83.41ZM277.626 124.18C284.466 124.18 287.706 119.59 287.706 110.5C287.706 102.58 283.566 97.09 277.716 97.09C272.136 97.09 267.816 102.31 267.816 109.78C267.816 119.41 271.146 124.18 277.626 124.18ZM268.266 153.97H256.746V88.72H267.996L268.086 94.12C270.876 89.62 275.016 87.55 280.416 87.55C291.576 87.55 299.586 96.37 299.586 111.31C299.586 124.72 292.836 134.17 281.406 134.17C275.916 134.17 271.596 131.92 268.266 127.24V153.97ZM341.746 102.13H330.496C329.866 97.81 327.526 96.28 322.216 96.28C317.806 96.28 315.286 97.36 315.286 99.97C315.286 102.58 317.716 103.66 322.486 105.01C327.526 106.45 332.296 107.44 335.716 108.79C340.396 110.68 343.006 113.74 343.006 119.5C343.006 128.68 336.256 134.17 323.656 134.17C310.066 134.17 302.506 127.78 302.326 118.78H314.386C314.386 122.92 317.896 125.35 323.566 125.35C327.706 125.35 331.396 124.09 331.396 120.76C331.396 117.61 328.066 116.62 324.286 115.72C316.816 113.92 312.676 112.66 309.526 110.68C305.386 108.07 303.946 104.65 303.946 100.69C303.946 93.22 309.076 87.55 322.576 87.55C335.356 87.55 341.116 92.59 341.746 102.13ZM370.889 115.36V103.84H381.779V116.44C381.779 125.8 376.379 134.17 363.869 134.17C350.909 134.17 345.779 125.89 345.779 116.35V76.75H357.299V88.72H381.779V97H357.299V115.18C357.299 120.76 359.279 124 364.049 124C368.729 124 370.889 120.85 370.889 115.36ZM397.631 106.54H415.721C415.541 99.97 411.221 96.82 406.631 96.82C401.951 96.82 398.081 100.42 397.631 106.54ZM427.781 113.92H397.271C397.631 120.58 401.411 124.9 407.171 124.9C410.951 124.9 414.281 123.01 415.091 119.95H427.151C424.451 129.04 417.161 134.17 407.711 134.17C392.951 134.17 385.571 126.07 385.571 110.05C385.571 96.37 393.401 87.55 406.991 87.55C420.581 87.55 427.781 96.37 427.781 113.92ZM443.524 133H431.824V88.72H442.804V94.03C446.674 88.09 451.174 87.55 455.944 87.55H457.474V99.52C456.394 99.34 455.314 99.25 454.234 99.25C447.034 99.25 443.524 102.85 443.524 109.96V133ZM465.334 133H452.824V120.85H465.334V133ZM496.701 116.17L496.791 111.31C495.621 112.48 493.551 113.11 489.231 113.92C482.571 115.18 480.411 117.07 480.411 120.85C480.411 124.18 482.391 125.8 486.081 125.8C492.111 125.8 496.611 121.39 496.701 116.17ZM508.491 133H497.601C497.241 131.92 496.971 130.39 496.881 129.04C494.091 132.1 489.411 134.17 483.471 134.17C473.391 134.17 468.711 129.22 468.711 122.02C468.711 109.24 477.261 107.8 489.051 106.18C494.901 105.37 496.521 104.2 496.521 101.14C496.521 98.26 493.641 96.55 489.051 96.55C483.741 96.55 481.581 99.16 481.041 103.12H470.151C470.331 93.94 475.371 87.55 489.591 87.55C503.631 87.55 508.491 93.85 508.491 105.01V133ZM525.621 133H513.921V88.72H525.621V133ZM525.621 83.41H513.921V72.52H525.621V83.41Z" fill="black"/>
</svg>
