<svg width="200" height="200" viewBox="0 0 200 200" fill="none" xmlns="http://www.w3.org/2000/svg">
<path d="M110.123 160.558C110.303 142.201 105.649 127.273 99.7288 127.215C93.8084 127.157 88.8636 141.992 88.6844 160.348C88.5048 178.706 93.1588 193.634 99.0788 193.692C104.999 193.75 109.944 178.915 110.123 160.558Z" fill="#6B00EE"/>
<path d="M75.788 156.389C85.8644 141.043 90.0208 125.969 85.072 122.719C80.1228 119.47 67.9424 129.275 57.8664 144.621C47.79 159.966 43.6336 175.04 48.5824 178.29C53.5316 181.54 65.7116 171.734 75.788 156.389Z" fill="#6B00EE"/>
<path d="M49.1168 134.372C65.8904 126.911 77.5372 116.478 75.1308 111.068C72.7248 105.658 57.1768 107.322 40.4032 114.783C23.6297 122.244 11.9828 132.677 14.389 138.087C16.7952 143.496 32.3433 141.833 49.1168 134.372Z" fill="#6B00EE"/>
<path d="M73.1176 95.898C74.0184 90.0464 60.0396 83.0388 41.8956 80.246C23.7511 77.4532 8.31216 79.9332 7.41152 85.7848C6.51088 91.6364 20.4896 98.6436 38.6339 101.436C56.778 104.229 72.2172 101.749 73.1176 95.898Z" fill="#6B00EE"/>
<path d="M79.632 81.958C83.5528 77.522 75.58 64.0704 61.8244 51.9132C48.0688 39.7561 33.7393 33.497 29.8186 37.9333C25.8978 42.3696 33.8706 55.8212 47.6264 67.9784C61.382 80.1356 75.7116 86.3944 79.632 81.958Z" fill="#6B00EE"/>
<path d="M92.6056 73.8112C98.3024 72.1992 98.8684 56.5724 93.87 38.9082C88.8716 21.2438 80.2012 8.23084 74.5044 9.84288C68.8076 11.4549 68.2416 27.0815 73.24 44.746C78.2384 62.41 86.9088 75.4232 92.6056 73.8112Z" fill="#6B00EE"/>
<path d="M127.834 45.2956C133.18 27.7332 132.922 12.0985 127.258 10.3744C121.594 8.65036 112.669 21.4898 107.323 39.0522C101.977 56.6144 102.235 72.2492 107.899 73.9732C113.563 75.6972 122.488 62.858 127.834 45.2956Z" fill="#6B00EE"/>
<path d="M153.006 69.026C166.996 57.14 175.231 43.8468 171.397 39.3349C167.564 34.8229 153.115 40.8008 139.124 52.6864C125.134 64.5724 116.9 77.8656 120.733 82.3776C124.566 86.8896 139.015 80.912 153.006 69.026Z" fill="#6B00EE"/>
<path d="M161.329 102.608C179.525 100.173 193.639 93.4428 192.854 87.5744C192.069 81.7064 176.682 78.9228 158.486 81.3568C140.29 83.7912 126.176 90.5216 126.961 96.39C127.746 102.258 143.133 105.042 161.329 102.608Z" fill="#6B00EE"/>
<path d="M184.802 139.764C187.314 134.403 175.875 123.742 159.252 115.952C142.629 108.161 127.117 106.192 124.604 111.553C122.092 116.914 133.531 127.575 150.154 135.366C166.777 143.156 182.289 145.125 184.802 139.764Z" fill="#6B00EE"/>
<path d="M149.836 179.32C154.848 176.168 150.989 161.015 141.218 145.474C131.446 129.932 119.461 119.889 114.449 123.04C109.437 126.191 113.296 141.345 123.067 156.886C132.839 172.427 144.824 182.471 149.836 179.32Z" fill="#6B00EE"/>
</svg>
